# xmcd CD database file
#
# Track frame offsets:
#	150
#	10662
#	20070
#	30197
#	48908
#	63817
#	82832
#	92870
#	109769
#	121144
#	137239
#	154208
#	162969
#
# Disc length: 2247 seconds
#
# Revision: 6
# Processed by: cddbd v1.5.2PL0 Copyright (c) Steve Scherf et al.
# Submitted via: CDex 1.70beta2
#
DISCID=9408c50d
DTITLE=Pantoflaci - Dejte nam RUM!
DYEAR=2007
DGENRE=Country
TTITLE0=Dejte mu rum
TTITLE1=Podbel
TTITLE2=Kdyz nas tata hral
TTITLE3=Sedm zlutejch kaminku
TTITLE4=Rychlejsi kone
TTITLE5=Frankie dlouhan
TTITLE6=Jesse James
TTITLE7=Lakani
TTITLE8=John Hardy
TTITLE9=Tulacke blues
TTITLE10=Prazdny nadrazi
TTITLE11=Hardy
TTITLE12=Instrumentalka
EXTD=YEAR: 2007
EXTT0=
EXTT1=
EXTT2=
EXTT3=
EXTT4=
EXTT5=
EXTT6=
EXTT7=
EXTT8=
EXTT9=
EXTT10=
EXTT11=
EXTT12=
PLAYORDER=
